<svg width="130" height="60" viewBox="0 0 130 60" fill="none" xmlns="http://www.w3.org/2000/svg">
<path d="M4.95672 0.00012207H0V35.7987H4.95672V22.5178C4.95672 20.271 5.51557 18.4986 6.63326 17.2504C7.75095 16.0021 9.2817 15.3531 11.1769 15.3531C12.8049 15.3531 14.1655 15.9522 15.2589 17.1006C16.3523 18.2739 16.9112 19.7468 16.9112 21.5192V35.8237H21.8922V21.5192C21.8922 18.224 20.9932 15.6277 19.1951 13.6805C17.3971 11.7333 15.0402 10.7597 12.1731 10.7597C11.347 10.7597 10.5209 10.8595 9.71906 11.0842C8.89294 11.3089 8.2369 11.5585 7.70235 11.8331C7.16781 12.1077 6.65756 12.4073 6.1959 12.7568C5.73424 13.1063 5.41838 13.3559 5.27259 13.5057C5.1268 13.6555 5.00532 13.7554 4.95672 13.8303V0.00012207Z" fill="#F0145A"/>
<path d="M32.9722 0H27.8623V35.7689H32.9722V0Z" fill="white"/>
<path d="M63.1106 25.2931L63.3661 22.7382C63.3661 19.3146 62.2419 16.4531 59.9425 14.1537C57.6431 11.8543 54.7816 10.7301 51.358 10.7301C47.9344 10.7301 44.9707 11.9565 42.518 14.4092C40.0652 16.8619 38.8389 19.7745 38.8389 23.2492C38.8389 26.8261 40.1163 29.892 42.6201 32.4469C45.124 35.0018 48.1388 36.2793 51.6135 36.2793C52.942 36.2793 54.1684 36.0749 55.3947 35.7172C56.6211 35.3084 57.6431 34.8996 58.3585 34.4909C59.1249 34.031 59.8914 33.52 60.5557 32.9579C61.22 32.3958 61.6799 31.987 61.8842 31.7315C62.0886 31.4761 62.2419 31.3228 62.3441 31.1695L59.0227 27.8481L58.2563 28.8189C57.7453 29.4321 56.8766 30.0453 55.6502 30.7096C54.3728 31.3739 53.0442 31.6804 51.6135 31.6804C49.6206 31.6804 47.9344 31.0673 46.5036 29.7898C45.0729 28.5123 44.2042 27.0305 43.9487 25.2931H63.1106ZM51.358 15.0735C53.2486 15.0735 54.7816 15.6355 56.059 16.7086C57.2854 17.8328 58.0519 19.2124 58.3585 20.9498H44.1531C44.613 19.2124 45.4306 17.8328 46.708 16.7086C47.9344 15.6355 49.5184 15.0735 51.358 15.0735Z" fill="white"/>
<path d="M86.9425 34.2865C86.9425 36.5348 86.2782 38.3743 84.8986 39.8051C83.57 41.1847 81.8838 41.9001 79.7888 41.9001C78.869 41.9001 77.9492 41.7468 77.0805 41.4913C76.2119 41.2358 75.5476 40.9292 74.9855 40.5715C74.4234 40.2139 73.9124 39.8562 73.4015 39.3963C72.9416 38.9364 72.635 38.6298 72.4817 38.4765C72.3284 38.3232 72.2262 38.1699 72.124 38.0677L68.8026 41.3891L69.2114 41.9001C69.4669 42.2578 69.9268 42.7177 70.54 43.2287C71.1531 43.6885 71.8685 44.1995 72.6861 44.7105C73.5037 45.1704 74.5256 45.5792 75.8031 45.9369C77.0805 46.2946 78.4091 46.499 79.7888 46.499C83.2634 46.499 86.125 45.3237 88.5266 42.9732C90.8771 40.5716 92.0524 37.71 92.0524 34.2354V11.2411H86.9425V13.796L86.0739 13.0295C85.5118 12.5185 84.6431 12.0076 83.4167 11.4966C82.1904 10.9856 80.8618 10.7301 79.5333 10.7301C76.4163 10.7301 73.7591 11.9054 71.4597 14.307C69.1603 16.7086 68.0361 19.5701 68.0361 22.9937C68.0361 26.4173 69.1603 29.2788 71.4597 31.6804C73.7591 34.0821 76.4163 35.2573 79.5333 35.2573C80.4019 35.2573 81.2195 35.1551 82.0882 34.9507C82.9058 34.6952 83.57 34.4397 84.1321 34.1843C84.6942 33.9288 85.2052 33.6222 85.6651 33.2645C86.125 32.9068 86.4826 32.6513 86.5848 32.5491L86.9425 32.1914V34.2865ZM73.146 22.9937C73.146 20.8476 73.8102 19.0591 75.1899 17.5773C76.5696 16.0954 78.2047 15.329 80.0442 15.329C81.8838 15.329 83.5189 16.0954 84.8986 17.5773C86.2271 19.0591 86.9425 20.8476 86.9425 22.9937C86.9425 25.1398 86.2271 26.9283 84.8986 28.4101C83.5189 29.892 81.8838 30.6585 80.0442 30.6585C78.2047 30.6585 76.5696 29.892 75.1899 28.4101C73.8102 26.9283 73.146 25.1398 73.146 22.9937Z" fill="white"/>
<path d="M118.723 35.7683V19.9278C118.723 17.3218 117.753 15.1246 115.862 13.3872C113.971 11.5988 111.519 10.7301 108.504 10.7301C107.328 10.7301 106.153 10.8834 105.029 11.19C103.905 11.5477 102.985 11.9054 102.321 12.3142C101.657 12.7229 100.992 13.1828 100.379 13.7449C99.7659 14.2559 99.4082 14.6136 99.2038 14.818C99.0505 15.0224 98.8972 15.1757 98.795 15.329L102.116 18.6504L102.781 17.7817C103.189 17.2196 103.905 16.7086 104.978 16.1465C106.051 15.5845 107.226 15.329 108.504 15.329C109.986 15.329 111.212 15.7888 112.183 16.6575C113.154 17.5262 113.614 18.6504 113.614 19.9278L104.671 21.4608C102.474 21.8185 100.686 22.6871 99.4593 24.0668C98.1819 25.4464 97.5176 27.1327 97.5176 29.1255C97.5176 31.0162 98.3352 32.6513 99.9703 34.0821C101.657 35.5639 103.7 36.2793 106.204 36.2793C107.073 36.2793 107.891 36.1771 108.708 35.9216C109.577 35.7172 110.241 35.4617 110.803 35.2062C111.365 34.9507 111.876 34.6442 112.336 34.2865C112.796 33.9288 113.103 33.6733 113.307 33.5711C113.46 33.4178 113.562 33.2645 113.614 33.2134V35.7683H118.723ZM106.971 31.6804C105.642 31.6804 104.569 31.3739 103.803 30.7607C102.985 30.1475 102.627 29.4321 102.627 28.6145C102.627 27.7459 102.883 26.9794 103.445 26.4173C104.007 25.8552 104.774 25.4464 105.693 25.2931L113.614 24.0157V24.5267C113.614 26.8261 113.051 28.5634 111.876 29.8409C110.701 31.0673 109.066 31.6804 106.971 31.6804Z" fill="white"/>
<path d="M130 0H124.89V35.7689H130V0Z" fill="white"/>
<path d="M0 53.1185H1.59915V58.7253H5.06396V60.0283H0V53.1185Z" fill="white"/>
<path d="M15.5016 58.5477H12.2934L11.6814 60.0283H10.0428L13.1226 53.1185H14.702L17.7917 60.0283H16.1136L15.5016 58.5477ZM14.9982 57.3335L13.9025 54.688L12.8067 57.3335H14.9982Z" fill="white"/>
<path d="M33.5121 53.1185L31.2516 60.0283H29.534L28.0138 55.3494L26.4443 60.0283H24.7366L22.4662 53.1185H24.1245L25.6842 57.9751L27.313 53.1185H28.7937L30.3731 58.0146L31.9821 53.1185H33.5121Z" fill="white"/>
<path d="M50.5232 60.1468C49.819 60.1468 49.1807 59.9954 48.6082 59.6927C48.0422 59.3834 47.5947 58.959 47.2657 58.4193C46.9432 57.8731 46.782 57.2578 46.782 56.5734C46.782 55.889 46.9432 55.277 47.2657 54.7373C47.5947 54.1911 48.0422 53.7667 48.6082 53.464C49.1807 53.1547 49.8223 53 50.5331 53C51.1319 53 51.6716 53.1053 52.152 53.3159C52.6389 53.5265 53.047 53.8292 53.376 54.224L52.3494 55.1717C51.8821 54.6321 51.303 54.3622 50.612 54.3622C50.1843 54.3622 49.8026 54.4577 49.467 54.6485C49.1313 54.8328 48.8681 55.0927 48.6773 55.4283C48.493 55.764 48.4009 56.1456 48.4009 56.5734C48.4009 57.0012 48.493 57.3828 48.6773 57.7185C48.8681 58.0541 49.1313 58.3173 49.467 58.5082C49.8026 58.6924 50.1843 58.7846 50.612 58.7846C51.303 58.7846 51.8821 58.5115 52.3494 57.9653L53.376 58.9129C53.047 59.3143 52.6389 59.6203 52.152 59.8309C51.665 60.0415 51.1221 60.1468 50.5232 60.1468Z" fill="white"/>
<path d="M62.5933 60.1468C61.876 60.1468 61.2278 59.9922 60.6487 59.6829C60.0761 59.3736 59.6253 58.9491 59.2963 58.4095C58.9738 57.8632 58.8126 57.2512 58.8126 56.5734C58.8126 55.8956 58.9738 55.2868 59.2963 54.7472C59.6253 54.201 60.0761 53.7733 60.6487 53.464C61.2278 53.1547 61.876 53 62.5933 53C63.3106 53 63.9555 53.1547 64.5281 53.464C65.1006 53.7733 65.5514 54.201 65.8804 54.7472C66.2095 55.2868 66.374 55.8956 66.374 56.5734C66.374 57.2512 66.2095 57.8632 65.8804 58.4095C65.5514 58.9491 65.1006 59.3736 64.5281 59.6829C63.9555 59.9922 63.3106 60.1468 62.5933 60.1468ZM62.5933 58.7846C63.0013 58.7846 63.3698 58.6924 63.6989 58.5082C64.0279 58.3173 64.2846 58.0541 64.4688 57.7185C64.6597 57.3828 64.7551 57.0012 64.7551 56.5734C64.7551 56.1456 64.6597 55.764 64.4688 55.4283C64.2846 55.0927 64.0279 54.8328 63.6989 54.6485C63.3698 54.4577 63.0013 54.3622 62.5933 54.3622C62.1853 54.3622 61.8168 54.4577 61.4877 54.6485C61.1587 54.8328 60.8987 55.0927 60.7079 55.4283C60.5236 55.764 60.4315 56.1456 60.4315 56.5734C60.4315 57.0012 60.5236 57.3828 60.7079 57.7185C60.8987 58.0541 61.1587 58.3173 61.4877 58.5082C61.8168 58.6924 62.1853 58.7846 62.5933 58.7846Z" fill="white"/>
<path d="M78.7995 60.0283L78.7896 55.8824L76.7561 59.2979H76.0355L74.0119 55.9713V60.0283H72.5115V53.1185H73.8342L76.4205 57.4125L78.9673 53.1185H80.2802L80.2999 60.0283H78.7995Z" fill="white"/>
<path d="M89.8659 53.1185C90.478 53.1185 91.0077 53.2205 91.4552 53.4245C91.9093 53.6285 92.2581 53.918 92.5016 54.2931C92.7451 54.6682 92.8668 55.1125 92.8668 55.6258C92.8668 56.1325 92.7451 56.5767 92.5016 56.9584C92.2581 57.3335 91.9093 57.623 91.4552 57.8271C91.0077 58.0245 90.478 58.1232 89.8659 58.1232H88.4741V60.0283H86.8749V53.1185H89.8659ZM89.7771 56.8202C90.2575 56.8202 90.6227 56.7182 90.8728 56.5142C91.1229 56.3036 91.2479 56.0074 91.2479 55.6258C91.2479 55.2375 91.1229 54.9414 90.8728 54.7373C90.6227 54.5268 90.2575 54.4215 89.7771 54.4215H88.4741V56.8202H89.7771Z" fill="white"/>
<path d="M103.148 58.5477H99.9396L99.3276 60.0283H97.6889L100.769 53.1185H102.348L105.438 60.0283H103.76L103.148 58.5477ZM102.644 57.3335L101.549 54.688L100.453 57.3335H102.644Z" fill="white"/>
<path d="M117.428 53.1185V60.0283H116.115L112.67 55.8331V60.0283H111.09V53.1185H112.413L115.848 57.3137V53.1185H117.428Z" fill="white"/>
<path d="M127.315 57.5803V60.0283H125.716V57.5605L123.041 53.1185H124.739L126.585 56.1884L128.43 53.1185H130L127.315 57.5803Z" fill="white"/>
</svg>
